<svg width="50" height="45" viewBox="0 0 50 45" fill="none" xmlns="http://www.w3.org/2000/svg">
<g clip-path="url(#clip0_40_5)">
<path d="M40.1997 36.3487C37.8984 36.3487 36.1111 38.2264 36.1111 40.5428C36.1111 42.8591 37.9766 44.7368 40.1997 44.7368C42.4228 44.7368 44.2882 42.8591 44.2882 40.5428C44.2882 38.2264 42.5781 36.3487 40.1997 36.3487ZM15.1997 36.3487C12.8984 36.3487 11.1111 38.2264 11.1111 40.5428C11.1111 42.8591 12.9774 44.7368 15.1997 44.7368C17.4219 44.7368 19.2882 42.8591 19.2882 40.5428C19.2882 38.2264 17.5781 36.3487 15.1997 36.3487ZM49.4358 3.90836C48.9055 3.20113 48.0972 2.79605 47.217 2.79605H10.5122L10.3819 1.70472C10.191 0.715615 9.3316 0 8.33333 0H2.00521C0.93316 0 0 0.939299 0 2.0184C0 3.0975 0.93316 4.19408 2.00521 4.19408H6.53125L11.7639 31.8488C12.0313 32.8361 12.8906 33.5526 13.8889 33.5526H42.3611C43.5113 33.5526 44.4445 32.6133 44.4445 31.5342C44.4445 30.2935 43.5156 29.3586 42.3611 29.3586H15.6163L14.8177 25.1645H42.4566C43.6971 25.1645 44.7865 24.337 45.1276 23.1365L49.8898 6.43878C50.1302 5.5091 49.9653 4.61611 49.4358 3.90836Z" fill="white"/>
</g>
<defs>
<clipPath id="clip0_40_5">
<rect width="50" height="44.7368" fill="white"/>
</clipPath>
</defs>
</svg>
