<svg width="70" height="67" viewBox="0 0 70 67" fill="none" xmlns="http://www.w3.org/2000/svg">
<path d="M35 49.5422C32.74 49.5422 30.4801 48.6096 28.5523 46.7194L0 18.7848V57.7993C0 62.3579 2.93809 66.0563 6.5625 66.0563H63.4375C67.0619 66.0563 70 62.3596 70 57.7993V18.7848L41.4531 46.7383C39.5254 48.6133 37.2559 49.5422 35 49.5422ZM2.22715 13.9854L31.2389 42.3861C33.4523 44.5536 36.5531 44.5536 38.7666 42.3861L67.7783 13.9854C69.0566 12.6092 70 10.4933 70 8.25704C70 3.69675 67.0605 0 63.4375 0H6.5625C2.93809 0 0 3.69675 0 8.25704C0 10.4933 0.82168 12.6092 2.22715 13.9854Z" fill="white"/>
</svg>
