<svg width="70" height="76" viewBox="0 0 70 76" fill="none" xmlns="http://www.w3.org/2000/svg">
<path d="M35 18.1007C23.6406 18.1007 14.4062 26.812 14.3906 37.528C14.3906 41.1983 15.4844 44.7801 17.5469 47.8607L18.0312 48.5977L15.9531 55.7614L23.75 53.8304L24.5 54.2579C27.6562 56.0267 31.2812 56.9701 34.9844 56.9701H35C46.3438 56.9701 55.8281 48.2587 55.8281 37.5428C55.8281 32.3543 53.4531 27.4753 49.5625 23.8051C45.6562 20.1201 40.5 18.1007 35 18.1007ZM47.1094 45.8708C46.5938 47.2417 44.125 48.4798 42.9375 48.642C40.9688 48.922 39.4375 48.7746 35.5156 47.1827C29.3125 44.6474 25.25 38.7514 24.9375 38.3682C24.625 37.985 22.4062 35.1991 22.4062 32.3248C22.4062 29.4505 24 28.0355 24.5781 27.4459C25.1406 26.8563 25.8125 26.7089 26.2344 26.7089C26.6406 26.7089 27.0625 26.7089 27.4219 26.7236C27.7969 26.7383 28.3125 26.5909 28.8125 27.7259C29.3281 28.8904 30.5625 31.7647 30.7188 32.0595C30.875 32.3543 30.9844 32.6933 30.7656 33.0765C29.5781 35.317 28.3125 35.2286 28.9531 36.2604C31.3438 40.137 33.7344 41.4783 37.375 43.2029C38 43.4977 38.3594 43.4535 38.7188 43.0555C39.0781 42.6723 40.2656 41.3457 40.6719 40.7708C41.0781 40.1812 41.5 40.2844 42.0625 40.476C42.625 40.6676 45.6719 42.0827 46.2969 42.3775C46.9219 42.6723 47.3281 42.8197 47.4844 43.0555C47.625 43.3356 47.625 44.5148 47.1094 45.8708ZM62.5 4.7168H7.5C3.35938 4.7168 0 7.88589 0 11.792V63.6768C0 67.5829 3.35938 70.752 7.5 70.752H62.5C66.6406 70.752 70 67.5829 70 63.6768V11.792C70 7.88589 66.6406 4.7168 62.5 4.7168ZM34.9844 60.9056C30.8281 60.9056 26.75 59.9181 23.1406 58.0608L10 61.3184L13.5156 49.2021C11.3438 45.6645 10.2031 41.6405 10.2031 37.5133C10.2188 24.6305 21.3281 14.1504 34.9844 14.1504C41.6094 14.1504 47.8281 16.5825 52.5156 21.0045C57.1875 25.4265 60 31.293 60 37.5428C60 50.4255 48.6406 60.9056 34.9844 60.9056Z" fill="white"/>
</svg>
