<svg width="70" height="70" viewBox="0 0 70 70" fill="none" xmlns="http://www.w3.org/2000/svg">
<path d="M35 26.6719C33.3517 26.6737 31.7411 27.1643 30.3716 28.0815C29.0021 28.9987 27.9353 30.3013 27.3061 31.8248C26.6769 33.3482 26.5136 35.024 26.8367 36.6402C27.1599 38.2565 27.955 39.7407 29.1216 40.9051C30.2882 42.0695 31.7738 42.8618 33.3907 43.1819C35.0076 43.502 36.683 43.3356 38.2053 42.7035C39.7276 42.0715 41.0282 41.0023 41.9428 39.6311C42.8575 38.2599 43.345 36.6483 43.3438 35C43.3404 32.7896 42.4598 30.6708 40.8953 29.1093C39.3308 27.5477 37.2104 26.671 35 26.6719ZM54.4844 20.2656C54.0601 19.1904 53.4194 18.2138 52.602 17.3964C51.7847 16.579 50.8081 15.9383 49.7328 15.5141C46.4516 14.2187 38.6391 14.5094 34.9984 14.5094C31.3578 14.5094 23.5531 14.2078 20.2625 15.5141C19.1873 15.9383 18.2107 16.579 17.3933 17.3964C16.5759 18.2138 15.9352 19.1904 15.5109 20.2656C14.2172 23.5469 14.5062 31.3672 14.5062 35.0047C14.5062 38.6422 14.2188 46.4531 15.5188 49.7344C15.943 50.8096 16.5837 51.7862 17.4011 52.6036C18.2185 53.4209 19.1951 54.0616 20.2703 54.4859C23.5516 55.7812 31.3641 55.4906 35.0062 55.4906C38.6484 55.4906 46.45 55.7922 49.7406 54.4859C50.8159 54.0616 51.7925 53.4209 52.6098 52.6036C53.4272 51.7862 54.0679 50.8096 54.4922 49.7344C55.7969 46.4531 55.4969 38.6328 55.4969 34.9953C55.4969 31.3578 55.7969 23.5469 54.5 20.2656H54.4844ZM35 47.8125C32.4659 47.8125 29.9888 47.0611 27.8818 45.6532C25.7748 44.2453 24.1325 42.2443 23.1628 39.9031C22.193 37.562 21.9393 34.9858 22.4337 32.5004C22.9281 30.015 24.1483 27.7321 25.9402 25.9402C27.7321 24.1483 30.015 22.9281 32.5004 22.4337C34.9858 21.9393 37.562 22.193 39.9031 23.1628C42.2443 24.1325 44.2453 25.7748 45.6532 27.8818C47.0611 29.9888 47.8125 32.4659 47.8125 35C47.8146 36.6831 47.4846 38.3502 46.8414 39.9056C46.1982 41.461 45.2546 42.8742 44.0644 44.0644C42.8742 45.2546 41.461 46.1982 39.9056 46.8414C38.3502 47.4846 36.6831 47.8146 35 47.8125ZM48.3406 24.6406C47.7491 24.6409 47.1707 24.4658 46.6787 24.1374C46.1867 23.8089 45.8031 23.342 45.5765 22.7955C45.3499 22.2491 45.2905 21.6477 45.4057 21.0675C45.5209 20.4873 45.8056 19.9543 46.2238 19.5359C46.642 19.1175 47.1749 18.8325 47.755 18.717C48.3352 18.6014 48.9366 18.6606 49.4832 18.8869C50.0297 19.1132 50.4969 19.4965 50.8256 19.9883C51.1543 20.4802 51.3297 21.0584 51.3297 21.65C51.3305 22.0426 51.2539 22.4314 51.1042 22.7944C50.9545 23.1573 50.7346 23.4871 50.4572 23.7649C50.1799 24.0427 49.8504 24.263 49.4877 24.4133C49.1251 24.5636 48.7363 24.6408 48.3438 24.6406H48.3406ZM62.5 0H7.5C5.51088 0 3.60322 0.790177 2.1967 2.1967C0.790176 3.60322 0 5.51088 0 7.5L0 62.5C0 64.4891 0.790176 66.3968 2.1967 67.8033C3.60322 69.2098 5.51088 70 7.5 70H62.5C64.4891 70 66.3968 69.2098 67.8033 67.8033C69.2098 66.3968 70 64.4891 70 62.5V7.5C70 5.51088 69.2098 3.60322 67.8033 2.1967C66.3968 0.790177 64.4891 0 62.5 0ZM59.8281 45.3125C59.6266 49.3172 58.7125 52.8656 55.7891 55.7812C52.8656 58.6969 49.3203 59.6297 45.3203 59.8203C41.1937 60.0531 28.8203 60.0531 24.6953 59.8203C20.6906 59.6188 17.1547 58.7031 14.2266 55.7812C11.2984 52.8594 10.3781 49.3094 10.1875 45.3125C9.95469 41.1844 9.95469 28.8125 10.1875 24.6875C10.3891 20.6828 11.2922 17.1344 14.2266 14.2188C17.1609 11.3031 20.7063 10.3813 24.6953 10.1906C28.8219 9.95781 41.1953 9.95781 45.3203 10.1906C49.325 10.3922 52.8719 11.3078 55.7891 14.2297C58.7062 17.1516 59.6375 20.7016 59.8281 24.7062C60.0625 28.8125 60.0625 41.1875 59.8281 45.3125Z" fill="white"/>
</svg>
